<?xml version="1.0" encoding="utf-8"?>
<!-- Generator: Adobe Illustrator 23.0.1, SVG Export Plug-In . SVG Version: 6.00 Build 0)  -->
<svg version="1.1" id="Layer_1" xmlns="http://www.w3.org/2000/svg" xmlns:xlink="http://www.w3.org/1999/xlink" x="0px" y="0px"
	 viewBox="0 0 93 93" style="enable-background:new 0 0 93 93;" xml:space="preserve">
<style type="text/css">
	.st0{fill:#AE007C;}
</style>
<g>
	<path class="st0" d="M14.02,73.21h43.75V39.72H14.02V73.21z M16.02,41.72h39.75v29.49H16.02V41.72z"/>
	<rect x="63.89" y="58.87" class="st0" width="2.6" height="6.92"/>
	<path class="st0" d="M16.64,19.7c1.49-0.83,1.96-1.94,1.96-3.07c0-0.95-0.3-1.73-0.91-2.36c-0.95-1.01-2.42-1.35-4.58-1.35h-2.64
		c-0.79,0-0.91,0.04-0.91,0.3v13.92c0,0.26,0.12,0.3,0.91,0.3h2.99c2.3,0,3.83-0.44,4.86-1.53c0.67-0.71,1.01-1.65,1.01-2.76
		C19.33,21.35,18.28,20.28,16.64,19.7z M12.49,15.24h0.73c1.03,0,1.63,0.16,2.02,0.54c0.28,0.28,0.42,0.71,0.42,1.19
		c0,0.56-0.2,1.05-0.54,1.35c-0.44,0.38-1.05,0.54-1.9,0.54h-0.73V15.24z M15.8,24.56c-0.56,0.48-1.33,0.58-2.3,0.58h-1.01v-4.05
		h0.99c1.25,0,1.94,0.14,2.42,0.63c0.32,0.32,0.46,0.81,0.46,1.39C16.36,23.75,16.14,24.25,15.8,24.56z"/>
	<path class="st0" d="M29.17,22.18l-0.46-0.85c1.61-0.85,2.5-2.22,2.5-4.11c0-1.27-0.36-2.26-1.01-2.93
		c-1.05-1.09-2.56-1.39-4.84-1.37h-2.7c-0.79,0-0.91,0.04-0.91,0.3v13.92c0,0.24,0.2,0.3,1.33,0.3h0.22c1.07,0,1.37-0.06,1.37-0.3
		v-5.26h1.29l0.67,1.23c1.25,2.32,1.98,3.49,2.48,4.03c0.28,0.28,0.56,0.3,1.25,0.3h1.11c0.87,0,0.97-0.16,0.79-0.4
		C31.34,25.83,30.38,24.38,29.17,22.18z M27.69,18.91c-0.4,0.42-1.09,0.67-2.04,0.67h-0.99v-4.32h0.97c1.05,0,1.71,0.16,2.14,0.58
		c0.32,0.32,0.48,0.79,0.48,1.41C28.26,17.96,28.08,18.53,27.69,18.91z"/>
	<path class="st0" d="M40.74,13.24c-0.1-0.26-0.26-0.32-1.37-0.32h-0.18c-1.17,0-1.27,0.1-1.35,0.32L32.91,27.1
		c-0.1,0.28,0.02,0.34,1.21,0.34h0.2c1.17,0,1.39-0.1,1.47-0.34l1.11-3.35h4.64l1.15,3.35c0.08,0.24,0.36,0.34,1.53,0.34h0.24
		c1.19,0,1.35-0.1,1.25-0.36L40.74,13.24z M37.65,21.53l0.22-0.67c0.65-1.94,1.09-3.41,1.37-4.42c0.28,1.05,0.63,2.16,1.33,4.38
		l0.22,0.71H37.65z"/>
	<path class="st0" d="M57.44,12.92H57.3c-1.11,0-1.29,0.08-1.29,0.3v4.96c0,1.41,0.04,3.69,0.12,4.66
		c-0.44-1.09-0.87-1.75-2.38-4.07l-3.63-5.53c-0.14-0.22-0.28-0.32-1.41-0.32h-0.1c-1.09,0-1.15,0.04-1.15,0.3v13.92
		c0,0.26,0.22,0.3,1.33,0.3h0.12c1.05,0,1.29-0.06,1.29-0.3v-4.96c0-1.39-0.04-3.73-0.14-4.68c0.3,0.83,0.85,1.73,2.4,4.09
		l3.63,5.53c0.16,0.26,0.4,0.32,1.37,0.32h0.12c1.07,0,1.17-0.06,1.17-0.3V13.22C58.75,13,58.49,12.92,57.44,12.92z"/>
	<path class="st0" d="M67.52,15.18c0.99,0,1.69,0.28,2.62,0.91c0.24,0.16,0.34,0.02,0.71-0.63L71.11,15
		c0.38-0.69,0.4-0.81,0.06-1.07c-1.07-0.81-2.36-1.21-3.87-1.21c-3.97,0-6.35,3.07-6.35,7.6c0,4.54,2.24,7.32,6.15,7.32
		c1.43,0,3.11-0.5,4.07-1.11c0.34-0.2,0.3-0.34,0-1.01l-0.22-0.48c-0.3-0.65-0.38-0.75-0.69-0.58c-0.87,0.46-1.84,0.71-2.72,0.71
		c-2.44,0-3.59-1.82-3.59-4.92C63.95,16.93,65.28,15.18,67.52,15.18z"/>
	<path class="st0" d="M83.09,12.92h-0.22c-1.13,0-1.33,0.06-1.33,0.3v5.71h-5.1v-5.71c0-0.24-0.3-0.3-1.37-0.3h-0.22
		c-1.13,0-1.33,0.06-1.33,0.3v13.92c0,0.24,0.2,0.3,1.33,0.3h0.22c1.07,0,1.37-0.06,1.37-0.3v-5.87h5.1v5.87
		c0,0.24,0.2,0.3,1.33,0.3h0.22c1.07,0,1.37-0.06,1.37-0.3V13.22C84.46,12.98,84.16,12.92,83.09,12.92z"/>
	<path class="st0" d="M41.36,49.4l-0.41-0.19c-0.91-0.44-1.37-1.41-1.37-2.88c0-1.69-1.25-2.6-2.43-2.6c-0.39,0-0.79,0.1-1.15,0.3
		c-0.36-0.2-0.76-0.3-1.15-0.3c-1.18,0-2.43,0.91-2.43,2.6c0,1.48-0.46,2.45-1.37,2.88l-0.41,0.19c-3,1.43-6.73,3.2-6.73,6.45
		c0,2.59,1.37,3.79,2.82,4.69c0.5,1.15,1.49,1.69,2.14,1.93c0.33,0.12,0.66,0.19,0.98,0.25c0.2,0.91,0.49,1.65,0.86,2.25
		c0.11,1.91,1.27,3.84,3.35,3.84c0.16,0,0.32-0.01,0.48-0.04c0.27-0.04,1.22-0.09,1.47-0.09c0.22,0,1.19,0.05,1.48,0.09
		c0.15,0.02,0.31,0.04,0.47,0.04c2.08,0,3.25-1.93,3.35-3.85c0.43-0.7,0.69-1.5,0.86-2.25c0.31-0.06,0.65-0.13,0.98-0.25
		c0.64-0.24,1.64-0.78,2.14-1.93c1.46-0.91,2.82-2.11,2.82-4.69C48.09,52.6,44.36,50.83,41.36,49.4z M35.99,51.84
		c0.59,0.96,1.47,1.87,2.74,2.55c0.28,0.15,0.54,0.29,0.79,0.42c0.27,0.14,0.55,0.29,0.83,0.44c-0.36-0.15-0.76-0.23-1.19-0.23
		c-0.36,0-0.96,0.02-1.59,0.05c-0.59,0.02-1.2,0.05-1.58,0.05c-0.38,0-0.99-0.02-1.58-0.05c-0.62-0.02-1.23-0.05-1.59-0.05
		c-0.43,0-0.83,0.08-1.19,0.23c0.27-0.15,0.56-0.3,0.82-0.44c0.25-0.13,0.51-0.27,0.79-0.42C34.53,53.71,35.4,52.81,35.99,51.84z
		 M43.3,59.03c-0.09,0.05,0.14,0.87-0.97,1.28c-0.65,0.24-2.15,0.21-2.24,0.89c-0.17,1.25-0.47,2.37-1.07,2.97
		C38.95,64.24,39,64.23,39,64.68c0,0.53-0.25,1.83-1.06,1.83c-0.04,0-0.08,0-0.13-0.01c-0.45-0.07-1.56-0.12-1.82-0.12
		c-0.26,0-1.37,0.05-1.82,0.12c-0.04,0.01-0.09,0.01-0.13,0.01c-0.81,0-1.06-1.29-1.06-1.83c0-0.45,0.05-0.44-0.01-0.51
		c-0.6-0.6-0.91-1.73-1.07-2.97c-0.09-0.68-1.59-0.65-2.24-0.89c-1.11-0.41-0.88-1.23-0.97-1.28c-1.63-0.94-2.49-1.44-2.49-3.18
		c0-1.9,3.33-3.37,5.82-4.57c2.49-1.19,2.68-3.89,2.68-4.96c0-0.19,0.04-0.3,0.13-0.3c0.09,0,0.13,0.14,0.13,0.3
		c0,1.89-0.18,4.63-2.81,6.05c-2.36,1.27-3.79,1.83-3.79,3.36c0,1.64,2.67,2.18,3.78,2.18c0.02,0,0.03,0,0.05,0
		c0.11,0-0.06-0.59,0.63-0.59c0.69,0,2.39,0.09,3.17,0.09c0.77,0,2.47-0.09,3.17-0.09c0.69,0,0.52,0.58,0.63,0.59
		c0.02,0,0.03,0,0.05,0c1.1,0,3.78-0.54,3.78-2.18c0-1.53-1.43-2.09-3.79-3.36c-2.63-1.42-2.81-4.16-2.81-6.05
		c0-0.16,0.04-0.3,0.13-0.3c0.09,0,0.13,0.1,0.13,0.3c0,1.06,0.19,3.77,2.68,4.96c2.49,1.19,5.83,2.67,5.83,4.57
		C45.79,57.59,44.93,58.09,43.3,59.03z"/>
	<path class="st0" d="M91,32.65V6.5H2.05v26.15h17.27v3.43h-9.26V87.5h49.63h23.65h2.91V36.08H72.95v-3.43H91z M4.05,8.5H89v22.15
		H4.05V8.5z M21.32,33.41h1v2.67h-1V33.41z M61.68,85.5V41.72h19.65V85.5H61.68z M84.25,38.08V85.5h-0.91V39.72H59.68V85.5H12.05
		V38.08h7.26h5h43.64h5H84.25z M69.95,36.08v-2.67h1v2.67H69.95z M67.95,36.08H24.32v-3.43h43.64V36.08z"/>
</g>
</svg>
