<?xml version="1.0" encoding="utf-8"?>
<!-- Generator: Adobe Illustrator 23.0.4, SVG Export Plug-In . SVG Version: 6.00 Build 0)  -->
<svg version="1.1"
	 id="svg2" xmlns:cc="http://creativecommons.org/ns#" xmlns:dc="http://purl.org/dc/elements/1.1/" xmlns:rdf="http://www.w3.org/1999/02/22-rdf-syntax-ns#" xmlns:svg="http://www.w3.org/2000/svg"
	 xmlns="http://www.w3.org/2000/svg" xmlns:xlink="http://www.w3.org/1999/xlink" x="0px" y="0px" viewBox="0 0 232.9 144"
	 style="enable-background:new 0 0 232.9 144;" xml:space="preserve">
<style type="text/css">
	.st0{fill:none;}
	.st1{fill:#FFFFFF;}
</style>
<g>
	<path class="st0" d="M117.3,75.4l-1.1-2c3.8-2,5.9-5.2,5.9-9.7c0-3-0.9-5.3-2.4-6.9c-2.4-2.5-5.8-3.2-11-3.2c-0.2,0-0.3,0-0.5,0
		h-6.4c-1.9,0-2.1,0.1-2.1,0.7v32.9c0,0.6,0.5,0.7,3.1,0.7h0.5c2.5,0,3.2-0.1,3.2-0.7V74.7h3.1l1.6,2.9c3,5.5,4.7,8.3,5.9,9.5
		c0.7,0.7,1.3,0.7,3,0.7h2.6c2.1,0,2.3-0.4,1.9-1C122.5,84,120.2,80.6,117.3,75.4z M113.8,67.7c-1,1-2.6,1.6-4.8,1.6h-2.3V59h2.3
		c2.5,0,4.1,0.4,5.1,1.4c0.8,0.8,1.1,1.9,1.1,3.3C115.2,65.4,114.7,66.8,113.8,67.7z"/>
	<path class="st0" d="M150.3,59.5l-57.6-45c-4.8-3.8-11.2-4.4-16.7-1.7c-5.4,2.6-8.9,8.2-8.9,14.2v8.4H28.6
		c-8.7,0-15.8,7.1-15.8,15.8v43.6c0,8.7,7.1,15.8,15.8,15.8h38.6v6.3c0,6,3.5,11.6,8.9,14.2c5.5,2.7,11.9,2,16.7-1.8l57.6-45
		c3.9-3,6.1-7.6,6.1-12.5C156.3,67.2,154.1,62.5,150.3,59.5z M128.6,89.4c-1.4,2.8-4.7,2.8-5.9,2.8h-2.6c-1.8,0-4,0-6-2l-0.1-0.1
		l-0.1-0.1c-0.8-0.9-1.8-2.2-3-4.2v1.3c0,5-5.5,5-7.6,5h-0.5c-2,0-7.5,0-7.5-5V62.6L89,75.5v11.6c0,5-5.5,5-7.6,5h-0.5
		c-2,0-7.5,0-7.5-5V75.5l-6.3-12.6L68.1,87l0,0.1v0.1c0,5-5.2,5-7.4,5h-0.4c-2.2,0-7.4,0-7.4-4.9l0-1.8c-1.6,1.2-3.7,1.2-5.2,1.2
		h-0.5c-1.6,0-3.9,0-5.5-1.4l-0.1,2c-0.1,4.9-5.1,4.9-7.3,4.9h-0.3c-2.5,0-4.6,0-6.1-1.7c-0.6-0.7-1.3-1.8-1.2-3.6l1.4-32.8l0-0.1
		l0-0.1c0.3-4.8,5-4.8,7.5-4.8H36c2.5,0,5.9,0,7.4,3.5l4.2,10l4.1-10l0-0.1l0-0.1c1.5-3.3,4.8-3.3,7.3-3.3h0.4c1.5,0,4,0,5.7,1.3
		c1.6-1.3,3.7-1.3,5.7-1.3h1.1c2.5,0,5.8,0,7.4,3.2l2.4,5l2.3-4.9c1.5-3.3,4.7-3.3,7.1-3.3H92c1.8,0,3.8,0,5.3,1.1
		c1-0.7,2.4-1.1,4.6-1.1l6.4,0l0.5,0c4.8,0,10.2,0.5,14.1,4.6c2.4,2.4,3.6,5.9,3.6,9.9c0,4.4-1.6,8.2-4.6,11
		c2.1,3.8,4.1,6.8,6.2,9.7C129.2,85.9,129.4,87.8,128.6,89.4z"/>
	<path class="st0" d="M59.3,53.5h-0.4c-2.9,0-3.1,0.3-3.3,0.8l-4.4,10.9c-1.5,3.6-3,7.8-3.6,9.8c-0.5-1.8-1.7-5-3.7-9.9l-4.5-10.8
		c-0.3-0.7-0.8-0.8-3.4-0.8h-0.6c-2.9,0-3.1,0.1-3.2,0.8l-1.4,32.9c0,0.6,0.1,0.7,3.1,0.7h0.3c2.6,0,3,0,3-0.7l0.3-10.9
		c0.1-4,0.1-8.9-0.1-11.8c0.7,2.5,2.4,7,4.1,10.9l2.6,6.2c0.2,0.6,0.5,0.8,3,0.8h0.5c2.5,0,2.7-0.2,2.9-0.8l2.6-6.3
		c1.5-3.7,3.1-8.3,3.8-10.8c-0.1,2.8-0.1,7.1,0,10.9l0.2,11.8c0,0.5,0.3,0.7,3.1,0.7h0.4c2.9,0,3.1-0.1,3.1-0.7l-1.3-32.9
		C62.4,53.6,62.1,53.5,59.3,53.5z"/>
	<path class="st0" d="M92,53.5H91c-2.6,0-2.9,0.2-3.1,0.7l-3.3,7.2c-1.1,2.5-2.2,5.2-2.8,7c-0.6-1.8-1.8-4.6-2.9-7l-3.4-7.2
		c-0.3-0.6-0.9-0.8-3.5-0.8h-1.1c-3,0-3.3,0.2-3,0.8l10,20.2v12.6c0,0.6,0.5,0.7,3.2,0.7h0.5c2.5,0,3.2-0.1,3.2-0.7V74.5l10.1-20.2
		C95,53.7,94.7,53.5,92,53.5z"/>
	<path class="st0" d="M218.2,96.1c-1-2.2-1.6-2.9-2.3-2.9c-0.3,0-0.5,0.1-0.9,0.3c-3.7,2-6.9,2.8-10.8,2.8c0,0,0,0-0.1,0
		c-7.2,0-11.3-4.1-13.2-11.4l14.7,0c0,0,0,0,0,0c0.9,0,1.2-0.1,1.2-4v-0.1c0-3.9-0.4-4-1.3-4l-15.7,0c-0.1-0.8-0.1-1.7-0.1-2.6
		c0-0.9,0-1.9,0.1-2.8l15.7,0c0,0,0,0,0,0c0.9,0,1.2-0.1,1.2-4v-0.1c0-3.9-0.4-4-1.2-4l-14.6,0c1.9-7.7,6.3-11.8,12.7-11.8
		c0,0,0,0,0,0c3.9,0,6.8,0.9,10.8,3.2c0.2,0.1,0.4,0.2,0.6,0.2c0.6,0,1.1-0.7,2.5-3l1-1.6c1.7-2.8,1.9-3.7,0.3-4.8
		c-4.7-3.1-9.3-4.8-16-4.8c0,0,0,0,0,0c-13.6,0-22.2,8.7-25.1,22.5l-6.2,0c0,0,0,0,0,0c-0.9,0-1.2,0.1-1.2,4v0.1c0,3.9,0.4,4,1.3,4
		l5.2,0c-0.1,1.1-0.1,2.1-0.1,3.1l0,2.2l-5.1,0c-0.9,0-1.3,0.1-1.3,4v0.1c0,3.9,0.4,4,1.3,4l5.9,0c2.5,14,10.4,22.2,24.6,22.2
		c0,0,0,0,0,0c6.9,0,12.5-2,16.8-4.7c1.5-1,1.3-1.7,0-4.5L218.2,96.1z"/>
	<path class="st1" d="M152.9,56.1l-57.6-45C89.2,6.4,81.1,5.5,74.1,9C67.3,12.3,62.9,19.4,62.9,27v4.1H28.6
		c-11.1,0-20.1,9-20.1,20.1v43.6c0,11.1,9,20.1,20.1,20.1h34.3v2c0,7.6,4.4,14.7,11.3,18.1c2.8,1.4,5.9,2.1,8.9,2.1
		c4.4,0,8.7-1.5,12.4-4.3l57.6-45c4.9-3.8,7.7-9.6,7.7-15.9C160.6,65.8,157.8,60,152.9,56.1z M150.3,84.5l-57.6,45
		c-4.8,3.7-11.2,4.4-16.7,1.8c-5.4-2.6-8.9-8.2-8.9-14.2v-6.3H28.6c-8.7,0-15.8-7.1-15.8-15.8V51.2c0-8.7,7.1-15.8,15.8-15.8h38.6
		V27c0-6,3.5-11.6,8.9-14.2c5.5-2.7,11.9-2,16.7,1.7l57.6,45c3.8,3,6.1,7.6,6.1,12.4C156.3,76.9,154.1,81.5,150.3,84.5z"/>
	<path class="st1" d="M222.1,94.2c-0.9-2-2.5-5.4-6.2-5.4c-1.3,0-2.3,0.5-2.9,0.8c-3,1.6-5.5,2.3-8.8,2.3c-2.3,0-4.7-0.4-6.6-2.8
		l8,0c5.6,0,5.6-5.6,5.6-8.4c0-3-0.1-5.2-1.6-6.8c1.6-1.8,1.6-4.8,1.6-6.8v0v-0.1c0-2.9,0-8.3-5.5-8.4l-8.2,0
		c2.3-3.2,5.1-3.2,6.3-3.2c3.1,0,5.3,0.7,8.6,2.6c0.3,0.2,1.4,0.8,2.8,0.8c3.1,0,4.7-2.6,6.2-5.1l1-1.6c1.3-2.1,4.3-7.1-1-10.6
		c-5.7-3.8-11.2-5.5-18.4-5.5h0h0c-14.1,0-24.3,8.1-28.5,22.5l-2.8,0c-5.6,0-5.6,5.6-5.6,8.3v0v0.1c0,1.9,0,4.9,1.6,6.7
		c-1.6,1.8-1.6,4.8-1.6,6.7v0v0.1c0,2.6,0.2,4,0.6,5.1c0.4,1,1.6,3.3,5,3.3l2.4,0c3.7,14.3,13.6,22.2,28,22.2
		c7.1,0,13.5-1.8,19.1-5.4c4.9-3.2,2.7-7.6,1.6-10L222.1,94.2z M219,102.3c-4.3,2.8-9.9,4.7-16.8,4.7c0,0,0,0,0,0
		c-14.2,0-22.1-8.2-24.6-22.2l-5.9,0c-0.9,0-1.3-0.1-1.3-4v-0.1c0-3.9,0.4-4,1.3-4l5.1,0l0-2.2c0-1.1,0-2.1,0.1-3.1l-5.2,0
		c-0.9,0-1.3-0.1-1.3-4v-0.1c0-3.9,0.4-4,1.2-4c0,0,0,0,0,0l6.2,0c2.9-13.8,11.5-22.5,25.1-22.5c0,0,0,0,0,0c6.6,0,11.3,1.6,16,4.8
		c1.6,1.1,1.4,2-0.3,4.8l-1,1.6c-1.4,2.3-1.9,3-2.5,3c-0.2,0-0.4-0.1-0.6-0.2c-3.9-2.3-6.8-3.2-10.8-3.2c0,0,0,0,0,0
		c-6.5,0-10.8,4.1-12.7,11.8l14.6,0c0.9,0,1.3,0.1,1.2,4v0.1c0,3.9-0.4,4-1.2,4c0,0,0,0,0,0l-15.7,0c-0.1,0.9-0.1,1.9-0.1,2.8
		c0,0.9,0,1.8,0.1,2.6l15.7,0c0.9,0,1.3,0.1,1.3,4v0.1c0,3.9-0.4,4-1.2,4c0,0,0,0,0,0l-14.7,0c1.9,7.3,6,11.4,13.2,11.4
		c0,0,0,0,0.1,0c3.9,0,7.1-0.8,10.8-2.8c0.3-0.2,0.6-0.3,0.9-0.3c0.7,0,1.2,0.7,2.3,2.9l0.8,1.7C220.3,100.6,220.5,101.3,219,102.3z
		"/>
	<path class="st1" d="M121.9,74.7c3-2.8,4.6-6.6,4.6-11c0-4.1-1.2-7.5-3.6-9.9c-3.9-4-9.3-4.6-14.1-4.6l-0.5,0l-6.4,0
		c-2.2,0-3.6,0.4-4.6,1.1c-1.5-1.1-3.5-1.1-5.3-1.1H91c-2.4,0-5.6,0-7.1,3.3l-2.3,4.9l-2.4-5c-1.6-3.2-5-3.2-7.4-3.2h-1.1
		c-2,0-4.1,0-5.7,1.3c-1.7-1.3-4.2-1.3-5.7-1.3h-0.4c-2.4,0-5.8,0-7.3,3.3l0,0.1l0,0.1l-4.1,10l-4.2-10c-1.5-3.5-4.9-3.5-7.4-3.5
		h-0.6c-2.5,0-7.1,0-7.5,4.8l0,0.1l0,0.1l-1.4,32.8c-0.1,1.7,0.6,2.9,1.2,3.6c1.6,1.7,3.7,1.7,6.1,1.7h0.3c2.2,0,7.3,0,7.3-4.9
		l0.1-2c1.6,1.4,3.9,1.4,5.5,1.4h0.5c1.5,0,3.6,0,5.2-1.2l0,1.8c0,4.9,5.2,4.9,7.4,4.9h0.4c2.2,0,7.4,0,7.4-5v-0.1l0-0.1l-0.9-24.1
		l6.3,12.6v11.6c0,5,5.4,5,7.5,5h0.5c2.1,0,7.6,0,7.6-5V75.5l6.5-12.9v24.6c0,5,5.4,5,7.5,5h0.5c2.1,0,7.6,0,7.6-5v-1.3
		c1.2,2,2.2,3.3,3,4.2l0.1,0.1l0.1,0.1c2,2,4.2,2,6,2h2.6c1.2,0,4.5,0,5.9-2.8c0.8-1.6,0.6-3.5-0.5-5.1
		C125.9,81.5,124,78.4,121.9,74.7z M60.6,87.9h-0.4c-2.7,0-3.1-0.1-3.1-0.7L57,75.4c-0.1-3.8-0.1-8.1,0-10.9
		c-0.7,2.5-2.3,7.2-3.8,10.8l-2.6,6.3c-0.2,0.6-0.4,0.8-2.9,0.8h-0.5c-2.5,0-2.7-0.2-3-0.8l-2.6-6.2c-1.7-3.9-3.4-8.4-4.1-10.9
		c0.2,2.9,0.2,7.8,0.1,11.8l-0.3,10.9c0,0.6-0.4,0.7-3,0.7h-0.3c-2.9,0-3.1-0.1-3.1-0.7l1.4-32.9c0-0.7,0.3-0.8,3.2-0.8H36
		c2.6,0,3.1,0.1,3.4,0.8l4.5,10.8c2.1,4.9,3.2,8.2,3.7,9.9c0.6-2,2.1-6.2,3.6-9.8l4.4-10.9c0.2-0.5,0.4-0.8,3.3-0.8h0.4
		c2.8,0,3.1,0.1,3.2,0.8l1.3,32.9C63.7,87.7,63.5,87.9,60.6,87.9z M94.8,54.3L84.6,74.5v12.6c0,0.6-0.7,0.7-3.2,0.7h-0.5
		c-2.7,0-3.2-0.1-3.2-0.7V74.5l-10-20.2c-0.3-0.6,0-0.8,3-0.8h1.1c2.6,0,3.2,0.2,3.5,0.8l3.4,7.2c1.1,2.4,2.3,5.2,2.9,7
		c0.6-1.7,1.7-4.5,2.8-7l3.3-7.2c0.2-0.5,0.5-0.7,3.1-0.7H92C94.7,53.5,95,53.7,94.8,54.3z M122.8,87.9h-2.6c-1.6,0-2.3,0-3-0.7
		c-1.2-1.3-2.9-4.1-5.9-9.5l-1.6-2.9h-3.1v12.5c0,0.6-0.7,0.7-3.2,0.7h-0.5c-2.7,0-3.1-0.1-3.1-0.7V54.2c0-0.6,0.3-0.7,2.1-0.7h6.4
		c0.2,0,0.3,0,0.5,0c5.1,0,8.6,0.7,11,3.2c1.5,1.6,2.4,3.9,2.4,6.9c0,4.5-2.1,7.7-5.9,9.7l1.1,2c2.9,5.2,5.2,8.6,7.3,11.5
		C125,87.5,124.8,87.9,122.8,87.9z"/>
	<path class="st1" d="M109,59h-2.3v10.2h2.3c2.2,0,3.9-0.6,4.8-1.6c0.9-0.9,1.3-2.2,1.3-3.9c0-1.5-0.4-2.6-1.1-3.3
		C113,59.4,111.4,59,109,59z"/>
</g>
</svg>
