<?xml version="1.0" encoding="utf-8"?>
<!-- Generator: Adobe Illustrator 23.0.4, SVG Export Plug-In . SVG Version: 6.00 Build 0)  -->
<svg version="1.1" id="Layer_1" xmlns="http://www.w3.org/2000/svg" xmlns:xlink="http://www.w3.org/1999/xlink" x="0px" y="0px"
	 viewBox="0 0 90 90" style="enable-background:new 0 0 90 90;" xml:space="preserve">
<style type="text/css">
	.st0{fill:none;}
	.st1{fill:#58595B;}
</style>
<g>
	<path class="st0" d="M21.5,42c-0.5,0.3-0.6,0.6-0.6,2v0.2c0,1.8,0.2,2.1,0.6,2.1c0,0,0,0,0,0l15.7-0.1c0.5,0,0.6-0.2,0.6-2.1l0-0.3
		c0-1.9-0.1-2-0.6-2c0,0,0,0,0,0l-10,0c1.4-1,2-3.4,2-6.1l0-1.7l6,0c0.3,0,0.5-0.1,0.5-1.9l0-0.3c0-1.8-0.2-1.9-0.5-1.9c0,0,0,0,0,0
		l-5.9,0l0-2.4c0-2.8,0.8-4.7,3.4-4.7c0,0,0,0,0,0c1.2,0,2.2,0.3,3.2,0.7c0.1,0,0.2,0.1,0.2,0.1c0.2,0,0.5-0.3,0.9-1.5l0.3-0.7
		c0.4-1.2,0.5-1.5,0.1-1.7c-1.3-0.7-3.2-1.2-5.1-1.2c0,0,0,0,0,0c-5.7,0-8.3,3.7-8.3,9.3l0,2l-2.6,0c-0.3,0-0.5,0.1-0.5,1.9l0,0.3
		c0,1.8,0.2,1.9,0.5,1.9c0,0,0,0,0,0l2.6,0l0,1.9C23.9,39.1,23.4,40.8,21.5,42z"/>
	<path class="st0" d="M55.6,52.7h-0.1c-1,0-1.1,0.1-1.2,0.3l-1.6,3.9c-0.5,1.3-1.1,2.8-1.3,3.5c-0.2-0.6-0.6-1.8-1.3-3.6L48.4,53
		c-0.1-0.2-0.3-0.3-1.2-0.3H47c-1,0-1.1,0-1.1,0.3l-0.5,11.8c0,0.2,0.1,0.3,1.1,0.3h0.1c0.9,0,1.1,0,1.1-0.2l0.1-3.9
		c0.1-1.4,0-3.2,0-4.2c0.3,0.9,0.9,2.5,1.5,3.9l0.9,2.2c0.1,0.2,0.2,0.3,1.1,0.3h0.2c0.9,0,1-0.1,1-0.3l0.9-2.3
		c0.5-1.3,1.1-3,1.4-3.9c-0.1,1,0,2.5,0,3.9l0.1,4.2c0,0.2,0.1,0.2,1.1,0.2h0.1c1,0,1.1-0.1,1.1-0.3L56.7,53
		C56.7,52.7,56.6,52.7,55.6,52.7z"/>
	<path class="st0" d="M30,12.5c-11.5,0-20.9,9.4-20.9,20.9C9.1,45,18.4,54.3,30,54.3c2,0,3.9-0.3,5.8-0.8c0.4-1.9,0.9-3.8,1.7-5.6
		c-0.1,0-0.1,0-0.2,0L21.5,48C19,48,19,45.5,19,44.1l0-0.1c0-1.1,0-2.7,1.5-3.6c1-0.6,1.5-1.4,1.5-4.4l0,0l-0.8,0
		c-2.3,0-2.3-2.4-2.3-3.7l0-0.3c0-1.4,0-3.7,2.3-3.7l0.8,0l0-0.2c0-3.3,0.8-6,2.4-7.9c1.7-2.1,4.4-3.2,7.7-3.2l0.1,0
		c2.1,0,4.3,0.5,5.9,1.4l0,0l0,0c1.8,1.1,1.1,2.9,0.7,4L38.6,23c-0.4,1.1-1,2.6-2.6,2.6c-0.3,0-0.7-0.1-1-0.2
		c-0.8-0.4-1.6-0.6-2.4-0.6c0,0,0,0,0,0c-0.8,0-1,0.3-1.1,0.4c-0.2,0.3-0.4,1-0.4,2.4l0,0.6l4.1,0c2.3,0,2.3,2.4,2.3,3.7l0,0.3
		c0,1.4,0,2.4-0.7,3.1c-0.4,0.4-0.9,0.6-1.6,0.6l-4.1,0c0,1.5-0.2,2.9-0.5,4.1l6.8,0c2.4,0,2.4,2.3,2.5,3.8
		c2.7-4.2,6.6-7.5,11.2-9.6c0-0.2,0-0.4,0-0.7C50.9,21.9,41.5,12.5,30,12.5z"/>
	<path class="st0" d="M32.4,73l-11.9-9.7c-0.2-0.2-0.5-0.3-0.6-0.3c-0.2,0.1-0.2,0.6-0.2,0.7l0,7.4l-1.1-0.3
		C15.1,70,6.8,67,3.9,57.8c-0.1-0.5-0.2-0.5-0.2-0.5c0,0-0.1,0.2-0.2,0.6c0,0.5,0,1,0,1.5c0,4.7,1.6,16,15.7,20.1l0.7,0.2l0,5.4
		c0,0.2,0,0.7,0.3,0.8c0.2,0.1,0.4-0.1,0.5-0.2l11.9-10.1c0.7-0.5,1.2-1,1.2-1.4C33.7,74.1,33.3,73.7,32.4,73z"/>
	<path class="st0" d="M35.4,57.3c0-0.6,0.1-1.2,0.1-1.8c-1.8,0.5-3.7,0.7-5.5,0.7C17.4,56.2,7.2,46,7.2,33.4
		c0-12.5,10.2-22.7,22.7-22.7c12.5,0,22.7,10.1,22.7,22.6c0,0,0,0,0.1,0c0.5-0.2,1.1-0.4,1.6-0.5c0.1,0,0.2-0.1,0.2-0.1
		c-0.4-13.3-11.3-24-24.7-24C16.4,8.8,5.3,19.8,5.3,33.4c0,13.6,11.1,24.7,24.7,24.7c1.8,0,3.6-0.2,5.4-0.6
		C35.4,57.5,35.4,57.4,35.4,57.3z"/>
	<path class="st0" d="M68.3,52.8c-0.1-0.1-0.4-0.1-0.9-0.1H67c-0.9,0-1,0.1-1.1,0.3l-1.2,2.6c-0.4,0.9-0.8,1.9-1,2.5
		c-0.2-0.6-0.6-1.6-1-2.5L61.3,53c-0.1-0.2-0.3-0.3-1.3-0.3h-0.4c-1.1,0-1.2,0.1-1.1,0.3l3.6,7.2v4.5c0,0.2,0.2,0.3,1.1,0.3h0.2
		c0.9,0,1.2-0.1,1.2-0.3v-4.5l3.6-7.2v-0.1C68.3,52.9,68.3,52.8,68.3,52.8z"/>
	<path class="st0" d="M56.4,16.5l11.5,10.1c0.2,0.2,0.5,0.4,0.6,0.3c0.2-0.1,0.3-0.5,0.3-0.7l0.2-7.4l1.1,0.3
		c3.4,1,11.7,4.3,14.2,13.6c0.1,0.5,0.2,0.5,0.2,0.6c0,0,0.1-0.2,0.2-0.6c0-0.4,0.1-1,0.1-1.5c0.1-4.7-1-16.1-14.9-20.7l-0.6-0.2
		l0.2-5.4c0-0.2,0-0.7-0.2-0.8c-0.2-0.1-0.4,0-0.5,0.1l-12.3,9.6c-0.8,0.6-1.2,1-1.3,1.3C55.2,15.4,55.6,15.8,56.4,16.5z"/>
	<path class="st0" d="M61.9,37.3C50.4,37.3,41,46.7,41,58.2c0,11.5,9.4,20.9,20.9,20.9c11.5,0,20.9-9.4,20.9-20.9
		C82.8,46.7,73.4,37.3,61.9,37.3z M78.3,66.8h-0.9c-0.7,0-1.6,0-2.4-0.8l0,0l0,0c-0.2-0.2-0.4-0.5-0.6-0.8c-0.2,1.1-1.2,1.7-3,1.7
		h-0.2c-0.7,0-3,0-3-2.1v-7.6l-1.8,3.5v4.1c0,1.4-1,2.1-3,2.1h-0.2c-0.7,0-3,0-3-2.1v-4.1l-1.6-3.3l0.3,7.3l0,0v0
		c0,2.1-2.1,2.1-2.9,2.1h-0.1c-0.7,0-2.9,0-2.9-2l0-0.2c-0.5,0.2-1.1,0.2-1.6,0.2h-0.2c-0.4,0-1.1,0-1.7-0.3l0,0.2c0,2-2.1,2-2.9,2
		h-0.1c-0.9,0-1.8,0-2.4-0.7c-0.2-0.2-0.6-0.7-0.5-1.5l0.5-11.8l0,0l0,0c0.1-2,2.1-2,3-2h0.2c0.9,0,2.3,0,2.9,1.4l1.2,3l1.2-3l0,0
		l0,0c0.6-1.4,2-1.4,2.9-1.4h0.1c0.5,0,1.4,0,2,0.4c0.6-0.4,1.4-0.4,2-0.4h0.4c0.9,0,2.3,0,2.9,1.3l0.6,1.2l0.6-1.2
		c0.6-1.3,1.9-1.3,2.8-1.3h0.4c0.6,0,1.3,0,1.9,0.4c0.4-0.2,0.9-0.4,1.6-0.4l2.3,0l0.2,0c1.8,0,3.8,0.2,5.2,1.7
		c0.9,0.9,1.4,2.2,1.4,3.8c0,1.6-0.5,3-1.6,4c0.7,1.3,1.4,2.3,2.1,3.2c0.5,0.6,0.6,1.4,0.2,2.1C80.1,66.8,78.8,66.8,78.3,66.8z"/>
	<path class="st0" d="M76.4,60.5L76,59.8c1.4-0.7,2.1-1.9,2.1-3.5c0-1.1-0.3-1.9-0.9-2.5c-0.9-0.9-2.1-1.2-3.9-1.2
		c-0.1,0-0.1,0-0.2,0h-2.3c-0.4,0-0.6,0-0.7,0.1c0,0.2,0,0.4-0.1,0.6v11.4c0,0.2,0.2,0.3,1.1,0.3h0.2c0.9,0,1.2-0.1,1.2-0.3v-4.5
		h1.1l0.6,1c1.1,2,1.7,3,2.1,3.4c0.2,0.2,0.5,0.3,1.1,0.3h0.9c0.7,0,0.8-0.1,0.7-0.3C78.2,63.6,77.4,62.4,76.4,60.5z M75.1,57.8
		c-0.3,0.4-0.9,0.6-1.7,0.6h-0.8v-3.7h0.8c0.9,0,1.5,0.1,1.8,0.5c0.3,0.3,0.4,0.7,0.4,1.2C75.6,57,75.5,57.4,75.1,57.8z"/>
	<path class="st0" d="M61.9,33.5c-2.1,0-4.2,0.3-6.1,0.8c-0.5,0.1-1.1,0.3-1.6,0.5c-0.2,0.1-0.3,0.1-0.5,0.2c-0.5,0.2-1,0.4-1.5,0.6
		c-7.7,3.3-13.4,10.4-14.8,18.9c-0.1,0.6-0.2,1.1-0.2,1.7c0,0.1,0,0.3,0,0.4c0,0.6-0.1,1.1-0.1,1.7c0,0,0,0,0,0l0,0.7l0,0
		c0.4,13.3,11.3,24,24.7,24c13.6,0,24.7-11.1,24.7-24.7C86.6,44.6,75.5,33.5,61.9,33.5z M61.9,81c-12.5,0-22.7-10.2-22.7-22.7
		c0-12.5,10.2-22.7,22.7-22.7s22.7,10.2,22.7,22.7C84.6,70.8,74.4,81,61.9,81z"/>
	<path class="st1" d="M55.2,17.9l11.4,10c0.6,0.6,1.5,1.1,2.5,0.7c0.5-0.2,1.4-0.7,1.5-2.3l0.2-5c3.5,1.2,9.8,4.4,11.8,11.9
		c0.4,1.7,1.5,1.9,2,1.9c0,0,0,0,0,0c0.7,0,1.6-0.4,2-2.2c0.1-0.6,0.1-1.1,0.1-1.7v0c0.2-5-1.1-17.1-15.6-22.3l0.1-4.1
		c0-1.6-0.7-2.3-1.3-2.6c-1-0.5-1.9-0.1-2.4,0.4l-12.2,9.6c-1,0.7-1.9,1.4-2,2.7C53.4,16.3,54.3,17.2,55.2,17.9z M56.5,13.8
		l12.3-9.6C68.8,4,69.1,3.9,69.2,4c0.2,0.1,0.2,0.7,0.2,0.8l-0.2,5.4l0.6,0.2c13.9,4.6,15.1,16,14.9,20.7c0,0.5-0.1,1.1-0.1,1.5
		c-0.1,0.4-0.2,0.6-0.2,0.6c0,0-0.1-0.1-0.2-0.6c-2.6-9.3-10.8-12.6-14.2-13.6L69,18.9l-0.2,7.4c0,0.1-0.1,0.6-0.3,0.7
		c-0.2,0.1-0.4-0.1-0.6-0.3L56.4,16.5c-0.8-0.7-1.2-1.1-1.2-1.4C55.2,14.7,55.7,14.3,56.5,13.8z"/>
	<path class="st1" d="M33.6,71.6L21.8,62c-0.6-0.6-1.5-1-2.5-0.6c-0.5,0.2-1.3,0.8-1.4,2.4l0,5C14.3,67.6,8,64.7,5.6,57.3
		c-0.5-1.8-1.7-1.9-2.1-1.9c-0.7,0-1.6,0.4-1.9,2.2c0,0.6-0.1,1.1-0.1,1.7c0,5,1.7,17.1,16.4,21.7l0,4.1c0,1.6,0.7,2.2,1.4,2.5
		c0.3,0.1,0.6,0.2,0.8,0.2c0.7,0,1.2-0.3,1.6-0.6l11.8-10c0.9-0.7,1.9-1.5,1.9-2.8C35.5,73.1,34.5,72.3,33.6,71.6z M32.4,75.8
		L20.6,85.8c-0.1,0.1-0.3,0.2-0.5,0.2c-0.2-0.1-0.3-0.7-0.3-0.8l0-5.4l-0.7-0.2C5,75.4,3.5,64.1,3.4,59.4c0-0.5,0-1.1,0-1.5
		c0.1-0.4,0.1-0.6,0.2-0.6c0,0,0.1,0.1,0.2,0.5C6.8,67,15.1,70,18.6,70.9l1.1,0.3l0-7.4c0-0.1,0-0.6,0.2-0.7
		c0.2-0.1,0.4,0.1,0.6,0.3L32.4,73c0.8,0.7,1.2,1.1,1.2,1.4C33.7,74.8,33.1,75.3,32.4,75.8z"/>
	<path class="st1" d="M61.9,31.7c-1.9,0-3.7,0.2-5.4,0.6C55.8,18.2,44.2,6.9,30,6.9C15.3,6.9,3.4,18.8,3.4,33.4
		C3.4,48.1,15.3,60,30,60c1.8,0,3.6-0.2,5.4-0.6C36,73.5,47.6,84.8,61.9,84.8c14.6,0,26.5-11.9,26.5-26.5
		C88.4,43.6,76.5,31.7,61.9,31.7z M5.3,33.4C5.3,19.8,16.4,8.8,30,8.8c13.4,0,24.3,10.7,24.7,24c-0.1,0-0.2,0.1-0.2,0.1
		c-0.6,0.2-1.1,0.3-1.6,0.5c0,0,0,0-0.1,0C52.7,20.9,42.5,10.7,30,10.7c-12.5,0-22.7,10.2-22.7,22.7C7.2,46,17.4,56.2,30,56.2
		c1.9,0,3.7-0.2,5.5-0.7c-0.1,0.6-0.1,1.2-0.1,1.8c0,0.1,0,0.1,0,0.2c-1.8,0.4-3.6,0.6-5.4,0.6C16.4,58.1,5.3,47.1,5.3,33.4z
		 M39.7,43.7c0-1.5,0-3.8-2.5-3.8l-6.8,0c0.4-1.2,0.5-2.5,0.5-4.1l4.1,0c0.6,0,1.1-0.2,1.6-0.6c0.7-0.7,0.8-1.7,0.7-3.1l0-0.3
		c0-1.3,0-3.7-2.3-3.7l-4.1,0l0-0.6c0-1.4,0.2-2.1,0.4-2.4c0.1-0.2,0.3-0.4,1.1-0.4c0,0,0,0,0,0c0.8,0,1.6,0.2,2.4,0.6
		c0.3,0.2,0.7,0.2,1,0.2c1.6,0,2.2-1.5,2.6-2.6l0.3-0.7c0.4-1.1,1.1-2.9-0.7-4l0,0l0,0c-1.7-0.9-3.8-1.4-5.9-1.4l-0.1,0
		c-3.3,0-5.9,1.1-7.7,3.2c-1.6,1.9-2.4,4.6-2.4,7.9l0,0.2l-0.8,0c-2.3,0-2.3,2.3-2.3,3.7l0,0.3c0,1.3,0,3.7,2.3,3.7l0.8,0l0,0
		c0,3-0.4,3.8-1.5,4.4C19,41.3,19,42.9,19,44l0,0.1c0,1.4,0,3.9,2.5,3.9l15.7-0.1c0.1,0,0.1,0,0.2,0c-0.8,1.8-1.3,3.6-1.7,5.6
		c-1.9,0.5-3.8,0.8-5.8,0.8C18.4,54.3,9.1,45,9.1,33.4c0-11.5,9.4-20.9,20.9-20.9c11.5,0,20.9,9.4,20.9,20.9c0,0.2,0,0.5,0,0.7
		C46.3,36.2,42.4,39.6,39.7,43.7z M23.9,34.1l-2.6,0c0,0,0,0,0,0c-0.3,0-0.5-0.1-0.5-1.9l0-0.3c0-1.8,0.1-1.9,0.5-1.9l2.6,0l0-2
		c0-5.6,2.6-9.3,8.3-9.3c0,0,0,0,0,0c1.9,0,3.8,0.5,5.1,1.2c0.5,0.3,0.4,0.6-0.1,1.7l-0.3,0.7c-0.4,1.1-0.6,1.5-0.9,1.5
		c-0.1,0-0.1,0-0.2-0.1c-1-0.4-2-0.7-3.2-0.7c0,0,0,0,0,0c-2.5,0-3.4,1.9-3.4,4.7l0,2.4l5.9,0c0,0,0,0,0,0c0.3,0,0.5,0.1,0.5,1.9
		l0,0.3c0,1.8-0.1,1.9-0.5,1.9l-6,0l0,1.7c0,2.7-0.6,5.1-2,6.1l10,0c0,0,0,0,0,0c0.5,0,0.6,0.1,0.6,2l0,0.3c0,1.8-0.1,2.1-0.6,2.1
		l-15.7,0.1c0,0,0,0,0,0c-0.5,0-0.6-0.2-0.6-2.1V44c0-1.4,0.1-1.7,0.6-2c1.9-1.1,2.4-2.8,2.4-6L23.9,34.1z M61.9,82.9
		c-13.4,0-24.3-10.7-24.7-24l0,0l0-0.7c0,0,0,0,0,0c0-0.6,0-1.1,0.1-1.7c0-0.1,0-0.3,0-0.4c0-0.6,0.1-1.1,0.2-1.7
		c1.3-8.5,7-15.6,14.8-18.9c0.5-0.2,1-0.4,1.5-0.6c0.2-0.1,0.3-0.1,0.5-0.2c0.5-0.2,1-0.3,1.6-0.5c2-0.5,4-0.8,6.1-0.8
		c13.6,0,24.7,11.1,24.7,24.7C86.6,71.9,75.5,82.9,61.9,82.9z"/>
	<path class="st1" d="M61.9,35.5c-12.5,0-22.7,10.2-22.7,22.7C39.1,70.8,49.3,81,61.9,81s22.7-10.2,22.7-22.7
		C84.6,45.7,74.4,35.5,61.9,35.5z M61.9,79.1C50.4,79.1,41,69.8,41,58.2c0-11.5,9.4-20.9,20.9-20.9c11.5,0,20.9,9.4,20.9,20.9
		C82.8,69.8,73.4,79.1,61.9,79.1z"/>
	<path class="st1" d="M80.5,63.6c-0.7-1-1.4-2-2.1-3.2c1-1,1.6-2.4,1.6-4c0-1.5-0.5-2.8-1.4-3.8c-1.5-1.5-3.5-1.7-5.2-1.7l-0.2,0
		l-2.3,0c-0.7,0-1.3,0.1-1.6,0.4c-0.6-0.4-1.3-0.4-1.9-0.4H67c-0.9,0-2.2,0-2.8,1.3l-0.6,1.2L63,52.2c-0.7-1.3-2-1.3-2.9-1.3h-0.4
		c-0.7,0-1.4,0-2,0.4c-0.7-0.4-1.5-0.4-2-0.4h-0.1c-0.9,0-2.2,0-2.9,1.4l0,0l0,0l-1.2,3l-1.2-3c-0.6-1.4-2-1.4-2.9-1.4H47
		c-0.8,0-2.8,0-3,2l0,0l0,0l-0.5,11.8c0,0.8,0.3,1.3,0.5,1.5c0.6,0.7,1.5,0.7,2.4,0.7h0.1c0.8,0,2.9,0,2.9-2l0-0.2
		c0.6,0.3,1.3,0.3,1.7,0.3h0.2c0.4,0,1,0,1.6-0.2l0,0.2c0,2,2.2,2,2.9,2h0.1c0.8,0,2.9,0,2.9-2.1v0l0,0l-0.3-7.3l1.6,3.3v4.1
		c0,2.1,2.2,2.1,3,2.1h0.2c2,0,3-0.7,3-2.1v-4.1l1.8-3.5v7.6c0,2.1,2.2,2.1,3,2.1h0.2c1.8,0,2.8-0.6,3-1.7c0.2,0.3,0.4,0.6,0.6,0.8
		l0,0l0,0c0.8,0.8,1.7,0.8,2.4,0.8h0.9c0.5,0,1.8,0,2.4-1.2C81,65,81,64.2,80.5,63.6z M56.1,65h-0.1c-1,0-1.1-0.1-1.1-0.2l-0.1-4.2
		c0-1.4-0.1-2.9,0-3.9c-0.3,0.9-0.8,2.6-1.4,3.9l-0.9,2.3c-0.1,0.2-0.2,0.3-1,0.3h-0.2c-0.9,0-1-0.1-1.1-0.3l-0.9-2.2
		c-0.6-1.4-1.2-3-1.5-3.9c0.1,1,0.1,2.8,0,4.2l-0.1,3.9c0,0.2-0.2,0.2-1.1,0.2h-0.1c-1,0-1.1-0.1-1.1-0.3L45.9,53
		c0-0.2,0.1-0.3,1.1-0.3h0.2c0.9,0,1.1,0.1,1.2,0.3l1.6,3.9c0.7,1.8,1.1,2.9,1.3,3.6c0.2-0.7,0.8-2.2,1.3-3.5l1.6-3.9
		c0.1-0.2,0.2-0.3,1.2-0.3h0.1c1,0,1.1,0.1,1.1,0.3l0.5,11.8C57.2,65,57.1,65,56.1,65z M64.7,60.2v4.5c0,0.2-0.3,0.3-1.2,0.3h-0.2
		c-1,0-1.1-0.1-1.1-0.3v-4.5L58.6,53c-0.1-0.2,0-0.3,1.1-0.3h0.4c0.9,0,1.2,0.1,1.3,0.3l1.2,2.6c0.4,0.9,0.8,1.9,1,2.5
		c0.2-0.6,0.6-1.6,1-2.5l1.2-2.6c0.1-0.2,0.2-0.3,1.1-0.3h0.4c0.6,0,0.8,0,0.9,0.1c0,0.1,0,0.1,0,0.2V53L64.7,60.2z M78.3,65h-0.9
		c-0.6,0-0.8,0-1.1-0.3c-0.4-0.5-1-1.5-2.1-3.4l-0.6-1h-1.1v4.5c0,0.2-0.3,0.3-1.2,0.3h-0.2c-1,0-1.1-0.1-1.1-0.3V53.3
		c0-0.2,0.1-0.4,0.1-0.6c0.1-0.1,0.3-0.1,0.7-0.1h2.3c0.1,0,0.1,0,0.2,0c1.8,0,3.1,0.3,3.9,1.2c0.5,0.6,0.9,1.4,0.9,2.5
		c0,1.6-0.8,2.8-2.1,3.5l0.4,0.7c1,1.9,1.8,3.1,2.6,4.1C79.2,64.9,79.1,65,78.3,65z"/>
	<path class="st1" d="M73.4,54.7h-0.8v3.7h0.8c0.8,0,1.4-0.2,1.7-0.6c0.3-0.3,0.5-0.8,0.5-1.4c0-0.5-0.1-0.9-0.4-1.2
		C74.9,54.8,74.3,54.7,73.4,54.7z"/>
</g>
</svg>
