<?xml version="1.0" encoding="utf-8"?>
<!-- Generator: Adobe Illustrator 23.0.4, SVG Export Plug-In . SVG Version: 6.00 Build 0)  -->
<svg version="1.1"
	 id="svg2" xmlns:cc="http://creativecommons.org/ns#" xmlns:dc="http://purl.org/dc/elements/1.1/" xmlns:rdf="http://www.w3.org/1999/02/22-rdf-syntax-ns#" xmlns:svg="http://www.w3.org/2000/svg"
	 xmlns="http://www.w3.org/2000/svg" xmlns:xlink="http://www.w3.org/1999/xlink" x="0px" y="0px" viewBox="0 0 232.9 144"
	 style="enable-background:new 0 0 232.9 144;" xml:space="preserve">
<style type="text/css">
	.st0{fill:none;}
	.st1{fill:#FFFFFF;}
</style>
<g>
	<path class="st0" d="M182.1,64.8c-0.4-4.7-1-9.3-2.1-13.7c-5.4,0.7-10.9,1.1-16.4,1.3V55v3.3c1.8,1.9,3.2,4,4.1,6.4h1.1H182.1z"/>
	<path class="st0" d="M206.1,64.8c-0.9-6.2-3-12.1-6.2-17.5c-2.7,0.7-5.4,1.3-8.1,1.9c1.1,5,1.9,10.2,2.2,15.6H206.1z"/>
	<path class="st0" d="M118.4,116.3l0.6-0.5l11.6-9.1l0.9-0.7l10.2-8l7.7-6l0.7-0.6l1.4-1.1v0l1.4-1.1l0.3-0.2l4-3.1l1.9-1.5
		c2.8-2.2,4.8-5.3,5.6-8.7l0.1-0.8c0.1-0.5,0.2-1,0.2-1.5c0-0.4,0.1-0.8,0.1-1.3c0,0,0-0.1,0-0.1c0,0,0-0.1,0-0.1
		c0-0.4,0-0.9-0.1-1.3c0-0.4-0.1-0.8-0.2-1.2c-0.7-3.8-2.7-7.4-5.8-9.8l-1.9-1.5l-4.2-3.3l-1.2-1l-2-1.6h0l-1-0.8l-2.9-2.3l-7.6-6
		l-2.7-2.1l-2-1.5l-1.6-1.3l-3.2-2.5l-1-0.8l0,0l-1.3-1l0,0l-0.2-0.2l-6.3-4.9l-1.5-1.2l-3.9-3.1l0,0l-12.1-9.5
		c-4.8-3.7-11.1-4.4-16.6-1.7c-5.4,2.6-8.8,8.2-8.8,14.2v8.1h-46c-8.7,0-15.7,7.1-15.7,15.7v43c0,8.7,7.1,15.8,15.7,15.8h46v6
		c0,6,3.5,11.5,8.8,14.1c5.5,2.7,11.8,2,16.6-1.7l12-9.3l0,0L118.4,116.3z M110.5,92.7c-2.1,0-7.1,0-7.1-4.6V60.8l-7.6,15.3v12
		c0,4.6-5.1,4.6-7.2,4.6H88c-2.1,0-7.1,0-7.1-4.6v-12l-7.5-15.2l1.1,27l0,0.1v0.1c0,4.6-4.8,4.6-7.1,4.6H67c-2.3,0-7,0-7-4.5l-0.1-3
		c-1.5,1.9-3.9,1.9-5.8,1.9h-0.5c-1.9,0-4.6,0-6.1-2.3l-0.1,3.4c0,4.5-4.5,4.5-7,4.5h-0.3c-2.5,0-4.4,0-5.9-1.6
		c-0.6-0.6-1.2-1.7-1.1-3.3l1.4-33.5l0-0.1l0-0.1c0.3-4.4,4.6-4.4,7.1-4.4h0.6c2.5,0,5.7,0,7.1,3.2l4.6,11c0.1,0.1,0.1,0.3,0.2,0.4
		c0-0.1,0.1-0.1,0.1-0.2l4.5-11.2l0-0.1l0-0.1c1.4-3.1,4.5-3.1,7-3.1H66c1.6,0,4.3,0,5.8,1.5c1.5-1.5,3.7-1.5,5.8-1.5h1.1
		c2.5,0,5.6,0,7.1,3l2.9,6.1l2.8-6c1.4-3,4.4-3,6.8-3h1.1c1.9,0,3.9,0,5.4,1.3c1-0.9,2.6-1.3,4.7-1.3l6.5,0l0.5,0
		c4.8,0,10.2,0.5,14,4.5c2.3,2.4,3.5,5.8,3.5,9.8c0,4.5-1.7,8.3-4.8,11.1c2.3,4,4.3,7.2,6.6,10.3c1.1,1.4,1.3,3.2,0.5,4.6
		c-1.3,2.6-4.3,2.6-5.5,2.6h-2.7c-1.8,0-3.9,0-5.8-1.9l-0.1-0.1l0-0.1c-1.1-1.1-2.3-2.9-4-5.9v3.2c0,4.6-5.1,4.6-7.2,4.6H110.5z"/>
	<path class="st0" d="M187.9,36.3c0.9-0.2,1.8-0.4,2.7-0.6c-1.5-1.3-3-2.6-4.6-3.7C186.6,33.4,187.3,34.9,187.9,36.3z"/>
	<path class="st0" d="M163.6,23.3V39c4.1-0.1,8.1-0.4,12-0.9c-0.5-1.1-1-2.1-1.6-3.1C171,29.4,167.4,25.4,163.6,23.3z"/>
	<path class="st0" d="M163.6,89v2.2c5.6,0.2,11.1,0.6,16.6,1.3c0.9-4.2,1.6-8.5,1.9-13h-13.3h-1.1c-0.9,2.3-2.3,4.4-4.1,6.2V89z"/>
	<path class="st0" d="M119.1,78.3c3,5.6,4.8,8.4,6,9.7c0.7,0.7,1.4,0.7,3,0.7h2.7c2.1,0,2.3-0.4,1.9-1c-2.2-2.9-4.5-6.4-7.5-11.7
		l-1.1-2c3.9-2,6-5.4,6-9.9c0-3.1-0.9-5.5-2.4-7.1c-2.5-2.6-6-3.3-11.2-3.3c-0.2,0-0.3,0-0.5,0h-6.5c-1.9,0-2.2,0.1-2.2,0.7v33.6
		c0,0.6,0.5,0.7,3.2,0.7h0.5c2.6,0,3.3-0.1,3.3-0.7V75.3h3.1L119.1,78.3z M114.3,69.8V59.3h2.3c2.5,0,4.1,0.4,5.2,1.4
		c0.8,0.8,1.2,1.9,1.2,3.4c0,1.7-0.4,3.1-1.4,4c-1,1-2.6,1.6-4.9,1.6H114.3z"/>
	<path class="st0" d="M66,53.7h-0.4c-3,0-3.2,0.3-3.4,0.8l-4.5,11.2c-1.5,3.7-3.1,8-3.7,10c-0.5-1.8-1.7-5.1-3.8-10.1l-4.6-11
		c-0.3-0.7-0.8-0.8-3.5-0.8h-0.6c-2.9,0-3.2,0.1-3.2,0.8l-1.4,33.6c0,0.6,0.1,0.7,3.1,0.7h0.3c2.6,0,3.1,0,3.1-0.7L43.8,77
		c0.1-4.1,0.1-9.1-0.1-12c0.7,2.5,2.5,7.2,4.2,11.1l2.7,6.3c0.2,0.6,0.5,0.8,3,0.8h0.5c2.5,0,2.7-0.2,3-0.8l2.6-6.4
		c1.6-3.8,3.2-8.5,3.9-11.1c-0.1,2.9-0.1,7.3,0,11.2l0.2,12.1c0,0.5,0.3,0.7,3.1,0.7h0.4c2.9,0,3.2-0.1,3.2-0.7l-1.3-33.6
		C69.2,53.8,68.8,53.7,66,53.7z"/>
	<path class="st0" d="M118.2,63.3v2.4c0.4-0.1,0.5-0.2,0.6-0.2l0,0l0,0c0,0,0.2-0.4,0.2-1.2c0-0.4,0-0.6-0.1-0.7
		C119,63.5,118.7,63.4,118.2,63.3z"/>
	<path class="st0" d="M99.4,53.7h-1.1c-2.7,0-3,0.2-3.2,0.7l-3.4,7.4c-1.2,2.5-2.2,5.4-2.9,7.1c-0.6-1.8-1.8-4.7-3-7.1l-3.5-7.3
		c-0.3-0.6-0.9-0.8-3.6-0.8h-1.1c-3,0-3.4,0.2-3.1,0.8l10.2,20.6v12.9c0,0.6,0.5,0.7,3.2,0.7h0.5c2.6,0,3.3-0.1,3.3-0.7V75.1
		l10.3-20.7C102.5,53.9,102.1,53.7,99.4,53.7z"/>
	<path class="st0" d="M206.1,79.5h-12.1c-0.3,5.2-1,10.2-2.1,14.9c2.8,0.6,5.6,1.2,8.3,1.9C203.3,91.1,205.2,85.4,206.1,79.5z"/>
	<path class="st0" d="M208.6,40.6c-1-1.6-2.1-3.2-3.3-4.7c-11-14.4-28.3-23.7-47.7-23.7c-13.8,0-26.5,4.7-36.7,12.6l5.7,4.5
		c4.2-3.1,8.9-5.5,13.9-7.3c-2.4,2.5-4.5,5.6-6.5,9.3c-0.5,0.9-0.9,1.8-1.4,2.7l1.4,1.1l2,1.5c0.5-1.2,1.1-2.3,1.7-3.4
		c3.6-6.5,7.8-11.1,12.4-13.5c1.8-0.9,3.6-1.5,5.4-1.8v1.3V43c-4.1,0-8-0.3-12-0.6l1,0.8l6.8,5.3c1.4,0.1,2.8,0.1,4.2,0.1v3.2
		l4.2,3.3v-6.4c7.9-0.1,15.7-0.7,23.2-1.8c1.9,6.7,3,14.2,3.3,21.9h-17.3c0,0.1,0,0.2,0,0.3c0.1,0.4,0.1,0.8,0.2,1.3
		c0.1,0.5,0.1,1,0.1,1.5c0,0.1,0,0.2,0,0.3c0,0.2,0,0.4,0,0.6c0,0.4,0,0.8-0.1,1.3c-0.1,0.6-0.1,1.2-0.2,1.7h17.4
		c-0.2,7.5-1.3,14.7-3.1,21.2c-7.5-1.1-15.4-1.8-23.4-1.8v-6l-4.2,3.3V95c-1.2,0-2.4,0.1-3.7,0.1l-7.7,6c3.7-0.3,7.5-0.5,11.3-0.6
		v24.5v1.3c-1.8-0.3-3.6-0.9-5.4-1.8c-4.6-2.4-8.9-7-12.4-13.5c-0.6-1.1-1.2-2.3-1.7-3.6l-3.4,2.6c0.5,1,0.9,2,1.5,2.9
		c2,3.6,4.2,6.7,6.5,9.2c-5.1-1.7-9.8-4.3-14.1-7.4l-5.7,4.4c10.2,7.9,22.9,12.7,36.8,12.7c19.7,0,37.2-9.5,48.1-24.2
		c1.1-1.5,2.2-3.1,3.2-4.8c5.5-9,8.6-19.6,8.6-30.9C217.5,60.6,214.3,49.8,208.6,40.6z M201.7,42.8c5,7.5,8.2,16.4,8.8,25.9h-20.1
		c-0.3-7.9-1.4-15.6-3.3-22.6C192.1,45.2,197,44.1,201.7,42.8z M159.7,43V19.2v-1.3c1.8,0.3,3.6,0.9,5.4,1.8
		c4.6,2.4,8.9,7,12.4,13.5c1.4,2.5,2.6,5.3,3.7,8.2C174.2,42.4,167,42.9,159.7,43z M185.4,40.8c-1.2-3.4-2.6-6.6-4.2-9.6
		c-2-3.6-4.2-6.7-6.5-9.3c9.2,3.1,17.3,8.7,23.5,16C194,39.1,189.7,40,185.4,40.8z M165.1,124.6c-1.8,0.9-3.6,1.5-5.4,1.8v-1.3
		v-24.5c7.4,0.1,14.7,0.6,21.7,1.7c-1.1,3.2-2.4,6.1-3.9,8.9C174,117.6,169.7,122.2,165.1,124.6z M174.7,122.3
		c2.4-2.5,4.5-5.6,6.5-9.2c1.7-3.1,3.2-6.6,4.4-10.2c4.5,0.8,8.8,1.7,13,2.9C192.4,113.3,184.1,119.1,174.7,122.3z M202.1,100.9
		c-4.8-1.4-9.7-2.5-14.9-3.4c1.8-6.8,2.9-14.2,3.1-21.9h20.1C209.9,84.9,206.9,93.5,202.1,100.9z"/>
	<path class="st0" d="M188.1,107.3c-0.7,1.7-1.4,3.3-2.1,4.9c1.8-1.3,3.6-2.7,5.2-4.3C190.2,107.7,189.1,107.5,188.1,107.3z"/>
	<path class="st0" d="M151.6,39V23.3c-3.8,2.1-7.4,6.2-10.5,11.8c-0.5,0.8-0.9,1.8-1.5,3.1l0,0l4.3,0.4
		C146.7,38.8,149.2,38.9,151.6,39z"/>
	<path class="st0" d="M163.6,121c3.8-2.1,7.4-6.2,10.5-11.8c0.6-1.2,1.3-2.5,1.9-3.8c-4-0.5-8.2-0.8-12.3-0.9V121z"/>
	<path class="st0" d="M151.6,121v-16.4c-2.2,0.1-4.5,0.2-7.1,0.4l-5.2,0.4l0.2,0.5c0.6,1.4,1.1,2.4,1.6,3.3
		C144.2,114.8,147.8,118.8,151.6,121z"/>
	<path class="st1" d="M181.2,113c-2,3.6-4.2,6.7-6.5,9.2c9.5-3.2,17.7-9,23.9-16.6c-4.2-1.1-8.5-2.1-13-2.9
		C184.3,106.5,182.9,109.9,181.2,113z M188.1,107.3c1,0.2,2.1,0.4,3.1,0.6c-1.6,1.5-3.4,3-5.2,4.3
		C186.7,110.6,187.4,109,188.1,107.3z"/>
	<path class="st1" d="M211.9,38.6c-1.1-1.7-2.2-3.4-3.5-5c-12.2-16-30.7-25.2-50.8-25.2c-14.3,0-27.8,4.6-39,13.4l-0.8,0.6
		l-12.9-10.1C99,7.6,91,6.7,84.2,10.1c-6.7,3.3-11,10.2-11,17.7v4.2H31.1c-10.8,0-19.6,8.8-19.6,19.6v43c0,10.8,8.8,19.6,19.6,19.6
		h42.1v2.1c0,7.5,4.3,14.4,11,17.7c2.8,1.3,5.7,2,8.6,2c4.3,0,8.5-1.4,12.1-4.2l12.7-9.9l0.8,0.6c11.3,8.8,24.9,13.5,39.2,13.5
		c20.1,0,39.2-9.6,51.2-25.8c1.2-1.6,2.4-3.3,3.4-5.1c6-9.9,9.2-21.3,9.2-33C221.4,60.2,218.1,48.6,211.9,38.6z M102.5,128.7
		c-4.8,3.7-11.1,4.4-16.6,1.7c-5.4-2.6-8.8-8.2-8.8-14.1v-6h-46c-8.7,0-15.7-7.1-15.7-15.8v-43c0-8.7,7.1-15.7,15.7-15.7h46v-8.1
		c0-6,3.5-11.5,8.8-14.2c5.5-2.7,11.8-2,16.6,1.7l12.1,9.5l0,0l3.9,3.1l1.5,1.2l6.3,4.9l0.2,0.2l0,0l1.3,1l0,0l1,0.8l3.2,2.5
		l1.6,1.3l2,1.5l2.7,2.1l7.6,6l2.9,2.3l1,0.8h0l2,1.6l1.2,1l4.2,3.3l1.9,1.5c3.1,2.4,5.1,5.9,5.8,9.8c0.1,0.4,0.1,0.8,0.2,1.2
		c0,0.4,0.1,0.9,0.1,1.3c0,0,0,0.1,0,0.1c0,0,0,0.1,0,0.1c0,0.4,0,0.9-0.1,1.3c0,0.5-0.1,0.9-0.2,1.5l-0.1,0.8
		c-0.8,3.4-2.8,6.5-5.6,8.7l-1.9,1.5l-4,3.1l-0.3,0.2l-1.4,1.1v0l-1.4,1.1l-0.7,0.6l-7.7,6l-10.2,8l-0.9,0.7l-11.6,9.1l-0.6,0.5
		l-3.9,3.1l0,0L102.5,128.7z M168.8,79.5h13.3c-0.3,4.5-1,8.8-1.9,13c-5.4-0.7-11-1.1-16.6-1.3V89v-3.3c1.8-1.8,3.1-3.9,4.1-6.2
		H168.8z M163.6,58.3V55v-2.6c5.5-0.2,11-0.6,16.4-1.3c1,4.3,1.7,8.9,2.1,13.7h-13.2h-1.1C166.8,62.4,165.4,60.2,163.6,58.3z
		 M208.9,103.1c-1,1.6-2.1,3.2-3.2,4.8c-10.9,14.7-28.4,24.2-48.1,24.2c-13.9,0-26.6-4.8-36.8-12.7l5.7-4.4c4.3,3.1,9,5.6,14.1,7.4
		c-2.4-2.5-4.5-5.6-6.5-9.2c-0.5-0.9-1-1.9-1.5-2.9l3.4-2.6c0.5,1.2,1.1,2.4,1.7,3.6c3.6,6.5,7.8,11.1,12.4,13.5
		c1.8,0.9,3.6,1.5,5.4,1.8v-1.3v-24.5c-3.8,0-7.6,0.3-11.3,0.6l7.7-6c1.2,0,2.4-0.1,3.7-0.1v-2.7l4.2-3.3v6c8,0.1,15.8,0.7,23.4,1.8
		c1.8-6.6,2.8-13.7,3.1-21.2h-17.4c0.1-0.6,0.2-1.1,0.2-1.7c0-0.4,0.1-0.8,0.1-1.3c0-0.2,0-0.4,0-0.6c0-0.1,0-0.2,0-0.3
		c0-0.5,0-1-0.1-1.5c0-0.4-0.1-0.8-0.2-1.3c0-0.1,0-0.2,0-0.3h17.3c-0.3-7.7-1.4-15.2-3.3-21.9c-7.5,1.1-15.3,1.7-23.2,1.8V55
		l-4.2-3.3v-3.2c-1.4,0-2.8-0.1-4.2-0.1l-6.8-5.3l-1-0.8c3.9,0.3,7.9,0.6,12,0.6V19.2v-1.3c-1.8,0.3-3.6,0.9-5.4,1.8
		c-4.6,2.4-8.9,7-12.4,13.5c-0.6,1.1-1.1,2.2-1.7,3.4l-2-1.5l-1.4-1.1c0.4-0.9,0.9-1.8,1.4-2.7c2-3.6,4.2-6.7,6.5-9.3
		c-5,1.7-9.7,4.2-13.9,7.3l-5.7-4.5c10.1-7.9,22.9-12.6,36.7-12.6c19.4,0,36.7,9.3,47.7,23.7c1.2,1.5,2.3,3.1,3.3,4.7
		c5.7,9.2,9,20,9,31.5C217.5,83.4,214.4,94,208.9,103.1z M139.3,105.4l5.2-0.4c2.6-0.2,4.9-0.4,7.1-0.4V121
		c-3.8-2.1-7.4-6.2-10.5-11.8c-0.5-0.9-1-1.9-1.6-3.3L139.3,105.4z M139.6,38.2L139.6,38.2c0.6-1.3,1.1-2.3,1.5-3.1
		c3.1-5.6,6.7-9.7,10.5-11.8V39c-2.4-0.1-5-0.3-7.8-0.5L139.6,38.2z"/>
	<path class="st1" d="M187.2,97.5c5.1,0.9,10.1,2,14.9,3.4c4.8-7.4,7.8-16,8.4-25.3h-20.1C190.1,83.3,189,90.7,187.2,97.5z
		 M194.1,79.5h12.1c-0.9,5.9-2.9,11.7-5.9,16.9c-2.7-0.7-5.5-1.4-8.3-1.9C193,89.6,193.7,84.6,194.1,79.5z"/>
	<path class="st1" d="M181.4,102.2c-7-1-14.3-1.6-21.7-1.7v24.5v1.3c1.8-0.3,3.6-0.9,5.4-1.8c4.6-2.4,8.9-7,12.4-13.5
		C179,108.3,180.3,105.3,181.4,102.2z M174.1,109.2c-3,5.6-6.7,9.7-10.5,11.8v-16.4c4.2,0.1,8.3,0.4,12.3,0.9
		C175.4,106.7,174.7,108,174.1,109.2z"/>
	<path class="st1" d="M165.1,19.7c-1.8-0.9-3.6-1.5-5.4-1.8v1.3V43c7.3-0.1,14.5-0.6,21.5-1.6c-1.1-2.9-2.3-5.7-3.7-8.2
		C174,26.7,169.7,22.1,165.1,19.7z M163.6,39V23.3c3.8,2.1,7.4,6.2,10.5,11.8c0.5,1,1.1,2,1.6,3.1C171.7,38.6,167.7,38.9,163.6,39z"
		/>
	<path class="st1" d="M190.3,68.6h20.1c-0.6-9.5-3.8-18.4-8.8-25.9c-4.7,1.3-9.6,2.4-14.7,3.3C189,53.1,190.1,60.7,190.3,68.6z
		 M199.9,47.3c3.2,5.4,5.3,11.3,6.2,17.5h-12.1c-0.4-5.4-1.1-10.6-2.2-15.6C194.6,48.6,197.3,48,199.9,47.3z"/>
	<path class="st1" d="M174.7,22c2.4,2.5,4.5,5.6,6.5,9.3c1.6,2.9,3,6.1,4.2,9.6c4.4-0.7,8.6-1.7,12.7-2.8
		C192,30.7,183.9,25.1,174.7,22z M187.9,36.3c-0.6-1.5-1.2-2.9-1.9-4.3c1.6,1.1,3.1,2.4,4.6,3.7C189.7,36,188.8,36.2,187.9,36.3z"/>
	<path class="st1" d="M118.2,88.1v-3.2c1.7,3,2.9,4.7,4,5.9l0,0.1l0.1,0.1c1.9,1.9,3.9,1.9,5.8,1.9h2.7c1.3,0,4.2,0,5.5-2.6
		c0.7-1.5,0.5-3.2-0.5-4.6c-2.3-3-4.3-6.2-6.6-10.3c3.1-2.8,4.8-6.6,4.8-11.1c0-4-1.2-7.4-3.5-9.8c-3.8-4-9.2-4.5-14-4.5l-0.5,0
		l-6.5,0c-2.1,0-3.7,0.4-4.7,1.3c-1.4-1.3-3.5-1.3-5.4-1.3h-1.1c-2.4,0-5.4,0-6.8,3l-2.8,6l-2.9-6.1c-1.5-3-4.6-3-7.1-3h-1.1
		c-2.1,0-4.4,0-5.8,1.5c-1.6-1.5-4.2-1.5-5.8-1.5h-0.4c-2.5,0-5.5,0-7,3.1l0,0.1l0,0.1L54,64.2c0,0.1-0.1,0.1-0.1,0.2
		c-0.1-0.1-0.1-0.3-0.2-0.4l-4.6-11c-1.4-3.2-4.5-3.2-7.1-3.2h-0.6c-2.5,0-6.8,0-7.1,4.4l0,0.1l0,0.1L33,87.8
		c-0.1,1.6,0.5,2.7,1.1,3.3c1.4,1.6,3.4,1.6,5.9,1.6h0.3c2.4,0,6.9,0,7-4.5l0.1-3.4c1.5,2.3,4.3,2.3,6.1,2.3h0.5
		c1.9,0,4.3,0,5.8-1.9l0.1,3c0,4.5,4.7,4.5,7,4.5h0.4c2.3,0,7.1,0,7.1-4.6V88l0-0.1l-1.1-27l7.5,15.2v12c0,4.6,5,4.6,7.1,4.6h0.5
		c2.2,0,7.2,0,7.2-4.6v-12l7.6-15.3v27.3c0,4.6,5,4.6,7.1,4.6h0.5C113.2,92.7,118.2,92.7,118.2,88.1z M67.3,88.8H67
		c-2.8,0-3.1-0.1-3.1-0.7L63.6,76c-0.1-3.9-0.1-8.3,0-11.2c-0.7,2.6-2.3,7.3-3.9,11.1l-2.6,6.4c-0.2,0.6-0.4,0.8-3,0.8h-0.5
		c-2.5,0-2.8-0.2-3-0.8l-2.7-6.3c-1.7-3.9-3.5-8.6-4.2-11.1c0.2,3,0.2,7.9,0.1,12l-0.3,11.1c0,0.6-0.4,0.7-3.1,0.7h-0.3
		c-3,0-3.2-0.1-3.1-0.7l1.4-33.6c0-0.7,0.3-0.8,3.2-0.8h0.6c2.7,0,3.2,0.1,3.5,0.8l4.6,11c2.1,5,3.3,8.3,3.8,10.1
		c0.6-2,2.1-6.3,3.7-10l4.5-11.2c0.2-0.5,0.4-0.8,3.4-0.8H66c2.8,0,3.2,0.1,3.2,0.8l1.3,33.6C70.5,88.6,70.3,88.8,67.3,88.8z
		 M102.2,54.5L91.8,75.1v12.9c0,0.6-0.7,0.7-3.3,0.7H88c-2.7,0-3.2-0.1-3.2-0.7V75.1L74.5,54.5c-0.3-0.6,0-0.8,3.1-0.8h1.1
		c2.7,0,3.3,0.2,3.6,0.8l3.5,7.3c1.2,2.4,2.4,5.3,3,7.1c0.6-1.8,1.7-4.6,2.9-7.1l3.4-7.4c0.2-0.5,0.5-0.7,3.2-0.7h1.1
		C102.1,53.7,102.5,53.9,102.2,54.5z M114.3,88.1c0,0.6-0.7,0.7-3.3,0.7h-0.5c-2.7,0-3.2-0.1-3.2-0.7V54.4c0-0.6,0.3-0.7,2.2-0.7
		h6.5c0.2,0,0.3,0,0.5,0c5.2,0,8.7,0.8,11.2,3.3c1.6,1.6,2.4,4,2.4,7.1c0,4.6-2.1,7.9-6,9.9l1.1,2c2.9,5.3,5.3,8.8,7.5,11.7
		c0.4,0.6,0.2,1-1.9,1h-2.7c-1.7,0-2.3,0-3-0.7c-1.2-1.3-3-4.1-6-9.7l-1.6-3h-3.1V88.1z"/>
	<path class="st1" d="M123,64.2c0-1.5-0.4-2.6-1.2-3.4c-1-1-2.6-1.4-5.2-1.4h-2.3v10.4h2.4c2.3,0,3.9-0.6,4.9-1.6
		C122.6,67.2,123,65.9,123,64.2z M118.9,65.4L118.9,65.4L118.9,65.4c-0.1,0.1-0.3,0.2-0.7,0.3v-2.4c0.5,0.1,0.7,0.1,0.8,0.2
		c0,0.1,0.1,0.3,0.1,0.7C119.1,65,119,65.4,118.9,65.4z"/>
</g>
</svg>
